# xmcd
#
# Track frame offsets: 
#        150
#        29104
#        46461
#        65485
#        87713
#        105593
#        124685
#        143959
#        154363
#        170742
#
# Disc length: 2453 seconds
#
# Revision: 0
# Processed by: cddbd v1.5.2PL0 Copyright (c) Steve Scherf et al.
# Submitted via: ExactAudioCopy v1.0b1
#
DISCID=9709930a
DTITLE=Pedro Aznar - A Solas Con El Mundo
DYEAR=2010
DGENRE=Rock
TTITLE0=Amelia
TTITLE1=Tema Del Ángel
TTITLE2=Si Llega A Ser Tucumana
TTITLE3=Calling You
TTITLE4=Media Veronica
TTITLE5=Vos Sos Mi Amor
TTITLE6=While My Guitar Gently Weeps
TTITLE7=Y Arriba Quemando El Sol
TTITLE8=Tan Alta Que Está La Luna
TTITLE9=Todo Amor Que Exista En Esta Vida
EXTD=
EXTT0=
EXTT1=
EXTT2=
EXTT3=
EXTT4=
EXTT5=
EXTT6=
EXTT7=
EXTT8=
EXTT9=
PLAYORDER=
